# xmcd
#
# Track frame offsets: 
#        150
#        20007
#        34424
#        49366
#        60451
#        73828
#        121988
#        134952
#        149976
#        170521
#        185550
#        199523
#        216865
#        236621
#        299694
#
# Disc length: 4261 seconds
#
# Revision: 0
# Processed by: cddbd v1.5.2PL0 Copyright (c) Steve Scherf et al.
# Submitted via: ExactAudioCopyFreeDBPlugin 1.0
#
DISCID=0510a30f
DTITLE=Various Artist - Dues Paid: The Bluestime Story
DYEAR=2013
DGENRE=Blues
TTITLE0=T-Bone Walker - Every Day I Have the Blues
TTITLE1=Otis Spann - I'm a Dues Payin' Man
TTITLE2=Harmonica Slim - Love
TTITLE3=T-Bone Walker - Sail On
TTITLE4=The Plaster Caster Blues Band - Chicago Charva Chapter
TTITLE5=Joe Turner - Plastic Man
TTITLE6=Eddie "Cleanhead" Vinson - I Needs to Be Be'd Wed
TTITLE7=Harmonica Slim - That's Alright
TTITLE8=Malcolm and Chris - Something So Bright
TTITLE9=Big Mama Thornton - Hound Dog
TTITLE10=Joe Turner - Shake, Rattle and Roll
TTITLE11=T-Bone Walker - For B.B. King
TTITLE12=Otis Spann - I Wonder Why
TTITLE13=The Super Black Blues Band - Paris Blues
TTITLE14=Leon Thomas - Disillusion Blues
EXTD=
EXTT0=
EXTT1=
EXTT2=
EXTT3=
EXTT4=
EXTT5=
EXTT6=
EXTT7=
EXTT8=
EXTT9=
EXTT10=
EXTT11=
EXTT12=
EXTT13=
EXTT14=
PLAYORDER=
